<?xml version="1.0" encoding="UTF-8"?>
<svg width="100" height="100" viewBox="0 0 100 100" xmlns="http://www.w3.org/2000/svg">
  <defs>
    <pattern id="blueprint" x="0" y="0" width="100" height="100" patternUnits="userSpaceOnUse">
      <!-- Main grid -->
      <path d="M 0 0 H 100 M 0 20 H 100 M 0 40 H 100 M 0 60 H 100 M 0 80 H 100 M 0 100 H 100" 
        stroke="currentColor" stroke-width="0.2" opacity="0.1"/>
      <path d="M 0 0 V 100 M 20 0 V 100 M 40 0 V 100 M 60 0 V 100 M 80 0 V 100 M 100 0 V 100" 
        stroke="currentColor" stroke-width="0.2" opacity="0.1"/>
        
      <!-- Fine grid -->
      <path d="M 0 10 H 100 M 0 30 H 100 M 0 50 H 100 M 0 70 H 100 M 0 90 H 100" 
        stroke="currentColor" stroke-width="0.1" opacity="0.05"/>
      <path d="M 10 0 V 100 M 30 0 V 100 M 50 0 V 100 M 70 0 V 100 M 90 0 V 100" 
        stroke="currentColor" stroke-width="0.1" opacity="0.05"/>
        
      <!-- Tech elements -->
      <circle cx="20" cy="20" r="3" stroke="currentColor" stroke-width="0.3" fill="none" opacity="0.2"/>
      <circle cx="80" cy="80" r="3" stroke="currentColor" stroke-width="0.3" fill="none" opacity="0.2"/>
      <circle cx="20" cy="80" r="1.5" fill="currentColor" opacity="0.15"/>
      <circle cx="80" cy="20" r="1.5" fill="currentColor" opacity="0.15"/>
      
      <!-- Connecting lines -->
      <path d="M 20 20 L 50 50 L 80 20" stroke="currentColor" stroke-width="0.3" opacity="0.15" fill="none"/>
      <path d="M 20 80 L 50 50 L 80 80" stroke="currentColor" stroke-width="0.3" opacity="0.15" fill="none"/>
    </pattern>
  </defs>
  <rect width="100%" height="100%" fill="url(#blueprint)"/>
</svg> 